<svg viewBox="0 0 800 240" xmlns="http://www.w3.org/2000/svg">
  <defs>
    <linearGradient id="bg" x1="0%" y1="0%" x2="100%" y2="100%">
      <stop offset="0%" style="stop-color:#0c0c0c"/>
      <stop offset="50%" style="stop-color:#100d16"/>
      <stop offset="100%" style="stop-color:#161022"/>
    </linearGradient>
    <linearGradient id="ac" x1="0%" y1="0%" x2="100%" y2="0%">
      <stop offset="0%" style="stop-color:#e040fb"/>
      <stop offset="100%" style="stop-color:#536dfe"/>
    </linearGradient>
    <radialGradient id="gl" cx="65%" cy="50%">
      <stop offset="0%" style="stop-color:rgba(224,64,251,0.07)"/>
      <stop offset="100%" style="stop-color:transparent"/>
    </radialGradient>
    <filter id="txtGlow" x="-20%" y="-20%" width="140%" height="140%">
      <feGaussianBlur stdDeviation="8" result="blur"/>
      <feMerge><feMergeNode in="blur"/><feMergeNode in="SourceGraphic"/></feMerge>
    </filter>
  </defs>

  <rect width="800" height="240" fill="url(#bg)"/>
  <rect width="800" height="240" fill="url(#gl)"/>

  <!-- Sparse constellation -->
  <line x1="520" y1="45" x2="620" y2="75" stroke="rgba(224,64,251,0.12)" stroke-width="0.5"/>
  <line x1="620" y1="75" x2="580" y2="150" stroke="rgba(83,109,254,0.1)" stroke-width="0.5"/>
  <line x1="580" y1="150" x2="520" y2="45" stroke="rgba(124,77,255,0.08)" stroke-width="0.5"/>
  <line x1="620" y1="75" x2="720" y2="55" stroke="rgba(224,64,251,0.1)" stroke-width="0.5"/>
  <line x1="720" y1="55" x2="740" y2="140" stroke="rgba(83,109,254,0.09)" stroke-width="0.5"/>
  <line x1="740" y1="140" x2="620" y2="75" stroke="rgba(224,64,251,0.07)" stroke-width="0.5"/>
  <line x1="580" y1="150" x2="680" y2="190" stroke="rgba(83,109,254,0.07)" stroke-width="0.5"/>
  <line x1="680" y1="190" x2="740" y2="140" stroke="rgba(224,64,251,0.06)" stroke-width="0.5"/>

  <!-- Vertices -->
  <circle cx="520" cy="45" r="2.5" fill="rgba(224,64,251,0.5)"/>
  <circle cx="620" cy="75" r="3.5" fill="rgba(224,64,251,0.6)"/>
  <circle cx="580" cy="150" r="2.5" fill="rgba(83,109,254,0.45)"/>
  <circle cx="720" cy="55" r="2" fill="rgba(124,77,255,0.4)"/>
  <circle cx="740" cy="140" r="3" fill="rgba(83,109,254,0.5)"/>
  <circle cx="680" cy="190" r="2" fill="rgba(224,64,251,0.35)"/>
  <circle cx="480" cy="200" r="1.5" fill="rgba(124,77,255,0.2)"/>
  <circle cx="770" cy="25" r="1" fill="rgba(224,64,251,0.15)"/>

  <!-- Title glow layer -->
  <text x="55" y="100" font-family="'IBM Plex Mono', 'Source Code Pro', monospace" font-size="44" font-weight="600" fill="rgba(224,64,251,0.18)" filter="url(#txtGlow)">kwork-mcp</text>
  <!-- Title sharp layer -->
  <text x="55" y="100" font-family="'IBM Plex Mono', 'Source Code Pro', monospace" font-size="44" font-weight="600" fill="url(#ac)">kwork-mcp</text>

  <!-- Tagline -->
  <text x="57" y="135" font-family="'Outfit', 'Sora', sans-serif" font-size="13.5" fill="rgba(255,255,255,0.38)" letter-spacing="1">MCP server · 25 tools · Kwork freelance marketplace</text>

  <!-- Accent dot + line -->
  <circle cx="59" cy="155" r="2.5" fill="rgba(224,64,251,0.4)"/>
  <rect x="68" y="153.5" width="80" height="1" fill="url(#ac)" rx="0.5" opacity="0.3"/>
</svg>
